<svg width="25" height="25" viewBox="0 0 25 25" fill="none" xmlns="http://www.w3.org/2000/svg">
<g clip-path="url(#clip0_2408_632)">
<path d="M13.014 6.89062H6.01404V8.89062H13.014V6.89062Z" fill="black"/>
<path d="M10.014 12.8906H6.01404V14.8906H10.014V12.8906Z" fill="black"/>
<path d="M15.014 12.8606V16.8906H6.01404L4.01404 18.8906V4.89062H15.014V6.92063C15.534 6.23063 16.214 5.67062 17.014 5.32062V4.89062C17.014 3.79062 16.114 2.89062 15.014 2.89062H4.01404C2.91404 2.89062 2.02404 3.79062 2.02404 4.89062L2.01404 22.8906L6.01404 18.8906H15.014C16.114 18.8906 17.014 17.9906 17.014 16.8906V14.4706C16.214 14.1106 15.534 13.5506 15.014 12.8606Z" fill="black"/>
<path d="M13.014 9.89062H6.01404V11.8906H13.014V9.89062Z" fill="black"/>
<path d="M20.014 7.07062C19.704 6.96062 19.364 6.89062 19.014 6.89062C17.354 6.89062 16.014 8.23063 16.014 9.89062C16.014 11.5506 17.354 12.8906 19.014 12.8906C20.674 12.8906 22.014 11.5506 22.014 9.89062V3.89062H24.014V1.89062H20.014V7.07062Z" fill="black"/>
</g>
<defs>
<clipPath id="clip0_2408_632">
<rect width="24" height="24" fill="white" transform="translate(0.0140381 0.890625)"/>
</clipPath>
</defs>
</svg>
