<svg width="25" height="25" viewBox="0 0 25 25" fill="none" xmlns="http://www.w3.org/2000/svg">
<g clip-path="url(#clip0_2408_642)">
<path d="M3.01404 6.89062H21.014V4.89062H3.01404C1.91404 4.89062 1.01404 5.79062 1.01404 6.89062V18.8906C1.01404 19.9906 1.91404 20.8906 3.01404 20.8906H7.01404V18.8906H3.01404V6.89062ZM13.014 12.8906H9.01404V14.6706C8.40404 15.2206 8.01404 16.0006 8.01404 16.8906C8.01404 17.7806 8.40404 18.5606 9.01404 19.1106V20.8906H13.014V19.1106C13.624 18.5606 14.014 17.7706 14.014 16.8906C14.014 16.0106 13.624 15.2206 13.014 14.6706V12.8906ZM11.014 18.3906C10.184 18.3906 9.51404 17.7206 9.51404 16.8906C9.51404 16.0606 10.184 15.3906 11.014 15.3906C11.844 15.3906 12.514 16.0606 12.514 16.8906C12.514 17.7206 11.844 18.3906 11.014 18.3906ZM22.014 8.89062H16.014C15.514 8.89062 15.014 9.39062 15.014 9.89062V19.8906C15.014 20.3906 15.514 20.8906 16.014 20.8906H22.014C22.514 20.8906 23.014 20.3906 23.014 19.8906V9.89062C23.014 9.39062 22.514 8.89062 22.014 8.89062ZM21.014 18.8906H17.014V10.8906H21.014V18.8906Z" fill="black"/>
</g>
<defs>
<clipPath id="clip0_2408_642">
<rect width="24" height="24" fill="white" transform="translate(0.0140381 0.890625)"/>
</clipPath>
</defs>
</svg>
