<svg width="20" height="22" viewBox="0 0 20 22" fill="none" xmlns="http://www.w3.org/2000/svg">
<path d="M7.58644 22C8.68644 22 9.58644 21.1 9.58644 20H5.58644C5.58644 21.1 6.47644 22 7.58644 22ZM13.5864 16V11C13.5864 7.93 11.9464 5.36 9.08644 4.68V4C9.08644 3.17 8.41644 2.5 7.58644 2.5C6.75644 2.5 6.08644 3.17 6.08644 4V4.68C3.21644 5.36 1.58644 7.92 1.58644 11V16L0.296477 17.29C-0.333523 17.92 0.106477 19 0.996477 19H14.1664C15.0564 19 15.5064 17.92 14.8764 17.29L13.5864 16Z" fill="#312522"/>
<path d="M14.5859 10C17.3473 10 19.5859 7.7614 19.5859 5C19.5859 2.23858 17.3473 0 14.5859 0C11.8245 0 9.58594 2.23858 9.58594 5C9.58594 7.7614 11.8245 10 14.5859 10Z" fill="#40BE88"/>
</svg>
