<svg width="18" height="13" viewBox="0 0 18 13" fill="none" xmlns="http://www.w3.org/2000/svg">
<path d="M1 5.5H11.9068Z" fill="#A8A8A8"/>
<path d="M1 5.5H11.9068" stroke="#A8A8A8" stroke-width="1.5" stroke-linecap="round" stroke-linejoin="round"/>
<path d="M1 10H9.56961Z" fill="#A8A8A8"/>
<path d="M1 10H9.56961" stroke="#A8A8A8" stroke-width="1.5" stroke-linecap="round" stroke-linejoin="round"/>
<path d="M1 1H15.023Z" fill="#A8A8A8"/>
<path d="M1 1H15.023" stroke="#A8A8A8" stroke-width="1.5" stroke-linecap="round" stroke-linejoin="round"/>
<path d="M15.0225 11.125C15.0225 11.7463 14.4993 12.25 13.8539 12.25C13.2086 12.25 12.6854 11.7463 12.6854 11.125C12.6854 10.5037 13.2086 10 13.8539 10C14.4993 10 15.0225 10.5037 15.0225 11.125Z" fill="#A8A8A8"/>
<path d="M15.0225 11.125V5.2C15.0225 4.95145 15.2318 4.75 15.49 4.75H16.5806M15.0225 11.125C15.0225 11.7463 14.4993 12.25 13.8539 12.25C13.2086 12.25 12.6854 11.7463 12.6854 11.125C12.6854 10.5037 13.2086 10 13.8539 10C14.4993 10 15.0225 10.5037 15.0225 11.125Z" stroke="#A8A8A8" stroke-width="1.5" stroke-linecap="round"/>
</svg>
