<svg width="13" height="13" viewBox="0 0 13 13" fill="none" xmlns="http://www.w3.org/2000/svg">
<path fill-rule="evenodd" clip-rule="evenodd" d="M11.5636 5.9452H7.21059V1.59223C7.21059 1.19103 6.88557 0.86673 6.4851 0.86673C6.08463 0.86673 5.7596 1.19103 5.7596 1.59223V5.9452H1.40663C1.00616 5.9452 0.681137 6.26949 0.681137 6.67069C0.681137 7.07189 1.00616 7.39619 1.40663 7.39619H5.7596V11.7492C5.7596 12.1504 6.08463 12.4747 6.4851 12.4747C6.88557 12.4747 7.21059 12.1504 7.21059 11.7492V7.39619H11.5636C11.964 7.39619 12.2891 7.07189 12.2891 6.67069C12.2891 6.26949 11.964 5.9452 11.5636 5.9452" fill="white"/>
</svg>
