<svg width="13" height="15" viewBox="0 0 13 15" fill="none" xmlns="http://www.w3.org/2000/svg">
<path d="M1.25625 14.0625C0.910787 14.0625 0.615044 13.9373 0.369019 13.6869C0.123006 13.4365 0 13.143 0 12.8063V3.05625C0 2.71953 0.123006 2.42597 0.369019 2.17558C0.615044 1.92519 0.910787 1.8 1.25625 1.8H2.7V0H3.95625V1.8H8.30625V0H9.5625V1.8H11.0062C11.3517 1.8 11.6475 1.92519 11.8935 2.17558C12.1395 2.42597 12.2625 2.71953 12.2625 3.05625V12.8063C12.2625 13.143 12.1395 13.4365 11.8935 13.6869C11.6475 13.9373 11.3517 14.0625 11.0062 14.0625H1.25625ZM1.25625 12.8063H11.0062V6.1875H1.25625V12.8063ZM1.25625 4.93125H11.0062V3.05625H1.25625V4.93125Z" fill="#A1A1A1"/>
</svg>
