<svg width="38" height="40" viewBox="0 0 38 40" fill="none" xmlns="http://www.w3.org/2000/svg">
<path d="M26.8533 27.1445L21.5296 21.8075C23.4888 19.4625 23.3738 15.9535 21.176 13.7505C20.0499 12.6215 18.5517 12 16.9589 12C15.3662 12 13.869 12.6215 12.7429 13.7505C10.419 16.0805 10.419 19.871 12.7429 22.2C13.8695 23.3285 15.3672 23.95 16.9589 23.95C18.3921 23.95 19.7458 23.4425 20.8235 22.52L26.1437 27.8525C26.2402 27.951 26.3697 28 26.4977 28C26.6258 28 26.7548 27.951 26.8523 27.8535C27.0488 27.658 27.0493 27.34 26.8533 27.1445V27.1445ZM13.382 21.563C11.4092 19.584 11.4092 16.3655 13.382 14.3875C14.3381 13.4305 15.6083 12.9025 16.9589 12.9025C18.3096 12.9025 19.5808 13.4305 20.5359 14.3875C22.5092 16.3655 22.5092 19.5845 20.5359 21.563C19.5808 22.52 18.3096 23.0475 16.9589 23.0475C15.6083 23.0475 14.3381 22.52 13.382 21.563Z" fill="#A1A1A1" stroke="#A1A1A1" stroke-width="0.5"/>
</svg>
