<svg width="16" height="16" viewBox="0 0 16 16" fill="none" xmlns="http://www.w3.org/2000/svg">
<path d="M8.00915 0.6875C8.55965 0.693845 9.10798 0.757445 9.64528 0.87728C9.8798 0.929593 10.0552 1.12513 10.0819 1.36397L10.2095 2.50911C10.2673 3.0349 10.7113 3.43313 11.2405 3.43369C11.3827 3.43391 11.5234 3.40428 11.6549 3.34612L12.7054 2.88467C12.9238 2.78869 13.1791 2.84102 13.3422 3.01521C14.1013 3.82598 14.6667 4.79836 14.9958 5.85919C15.0667 6.08794 14.9851 6.33652 14.7923 6.47863L13.8612 7.16495C13.5955 7.3601 13.4387 7.67 13.4387 7.99963C13.4387 8.32917 13.5955 8.63907 13.8618 8.83467L14.7937 9.52122C14.9865 9.66327 15.0682 9.9119 14.9973 10.1407C14.6683 11.2014 14.1033 12.1737 13.3446 12.9846C13.1817 13.1587 12.9266 13.2112 12.7081 13.1154L11.6534 12.6534C11.3516 12.5213 11.0051 12.5407 10.7199 12.7055C10.4347 12.8703 10.245 13.1609 10.2088 13.4883L10.0819 14.6333C10.0558 14.8694 9.88415 15.0637 9.653 15.1186C8.5667 15.3771 7.43488 15.3771 6.34852 15.1186C6.11743 15.0637 5.94579 14.8694 5.91964 14.6333L5.79302 13.49C5.75583 13.1632 5.56576 12.8735 5.28082 12.7092C4.99588 12.545 4.6499 12.5257 4.34915 12.6571L3.29418 13.1192C3.07567 13.215 2.82052 13.1625 2.65759 12.9882C1.89847 12.1764 1.33339 11.2029 1.0049 10.1411C0.934146 9.91243 1.0159 9.66395 1.20864 9.52197L2.14114 8.83498C2.40674 8.63983 2.5636 8.32992 2.5636 8.00037C2.5636 7.67075 2.40674 7.36085 2.14078 7.16547L1.20887 6.47964C1.01585 6.33759 0.934026 6.08883 1.00503 5.85993C1.33409 4.79911 1.89946 3.82673 2.6586 3.01596C2.82169 2.84177 3.07696 2.78944 3.29543 2.88542L4.34572 3.34679C4.64792 3.47942 4.99535 3.45939 5.28183 3.29202C5.56707 3.12657 5.75697 2.83566 5.79363 2.50823L5.92118 1.36397C5.94782 1.12501 6.1234 0.929405 6.3581 0.877205C6.89608 0.757565 7.445 0.693987 8.00915 0.6875ZM8.0093 1.81243C7.66873 1.81643 7.3292 1.84582 6.99335 1.90026L6.91168 2.63314C6.83533 3.31526 6.44002 3.92077 5.84782 4.26427C5.25198 4.61238 4.52552 4.65427 3.89344 4.37688L3.21972 4.08092C2.79077 4.60155 2.44936 5.18851 2.20889 5.81876L2.80724 6.25909C3.36135 6.6662 3.6886 7.31277 3.6886 8.00037C3.6886 8.6879 3.36135 9.33447 2.80783 9.74113L2.20854 10.1826C2.44879 10.814 2.79026 11.4021 3.2195 11.9237L3.89835 11.6263C4.52692 11.3519 5.24843 11.392 5.84265 11.7346C6.43686 12.0771 6.83323 12.6813 6.911 13.3644L6.99275 14.1024C7.65995 14.2158 8.34163 14.2158 9.00883 14.1024L9.09058 13.3645C9.16618 12.6816 9.5621 12.0753 10.157 11.7315C10.7519 11.3876 11.4749 11.3472 12.1046 11.6229L12.7829 11.92C13.2118 11.3992 13.5531 10.8121 13.7935 10.1818L13.195 9.74083C12.6409 9.33372 12.3137 8.68715 12.3137 7.99963C12.3137 7.31203 12.6409 6.66545 13.1944 6.25885L13.792 5.81832C13.5516 5.18796 13.2101 4.60088 12.7811 4.08017L12.1087 4.37553C11.8348 4.49676 11.5384 4.55915 11.239 4.55869C10.1368 4.55753 9.21163 3.72766 9.09133 2.63287L9.00965 1.90002C8.67553 1.84565 8.33945 1.81634 8.0093 1.81243ZM7.99978 5.18746C9.5531 5.18746 10.8123 6.44666 10.8123 8C10.8123 9.55325 9.5531 10.8125 7.99978 10.8125C6.44647 10.8125 5.18728 9.55325 5.18728 8C5.18728 6.44666 6.44647 5.18746 7.99978 5.18746ZM7.99978 6.31246C7.06783 6.31246 6.31228 7.06798 6.31228 8C6.31228 8.93195 7.06783 9.6875 7.99978 9.6875C8.93173 9.6875 9.68727 8.93195 9.68727 8C9.68727 7.06798 8.93173 6.31246 7.99978 6.31246Z" fill="#A1A1A1"/>
</svg>
