<svg width="9" height="12" viewBox="0 0 9 12" fill="none" xmlns="http://www.w3.org/2000/svg">
<path d="M4.52302 9.50007C4.52302 10.3914 3.50986 11.1134 2.26151 11.1134C1.01316 11.1134 0 10.3914 0 9.50007C0 8.60869 1.01316 7.88672 2.26151 7.88672C3.50986 7.88672 4.52302 8.60869 4.52302 9.50007Z" fill="#A8A8A8"/>
<path fill-rule="evenodd" clip-rule="evenodd" d="M4.52466 1.43359V9.50033H3.62006V1.43359H4.52466Z" fill="#A8A8A8"/>
<path d="M3.62006 1.29019C3.62018 1.10377 3.69271 0.923151 3.8253 0.77903C3.95789 0.63491 4.14236 0.536188 4.34736 0.499651L7.06117 0.0156464C7.19235 -0.00773643 7.32773 -0.00488023 7.45753 0.0240093C7.58733 0.0528988 7.70833 0.107102 7.81181 0.182715C7.91529 0.258327 7.99867 0.353466 8.05595 0.461277C8.11324 0.569088 8.14299 0.686887 8.14307 0.806187V2.24207L3.62006 3.04874V1.29019Z" fill="#A8A8A8"/>
</svg>
