<svg width="13" height="10" viewBox="0 0 13 10" fill="none" xmlns="http://www.w3.org/2000/svg">
<path d="M12.2986 1.18711C11.8379 1.39087 11.3495 1.52468 10.8493 1.58413C11.3765 1.26883 11.7711 0.7726 11.9595 0.187921C11.4647 0.482368 10.9223 0.688722 10.3569 0.800346C9.97717 0.394021 9.4738 0.124544 8.92509 0.03381C8.37638 -0.0569246 7.81306 0.0361669 7.32271 0.298612C6.83237 0.561057 6.44246 0.978151 6.21362 1.48505C5.98478 1.99195 5.92981 2.56026 6.05728 3.10162C5.05393 3.05133 4.07238 2.79059 3.17634 2.33634C2.2803 1.88208 1.48981 1.24446 0.856188 0.46487C0.631908 0.850095 0.514048 1.28801 0.514678 1.73377C0.514678 2.60866 0.959969 3.38158 1.63696 3.83411C1.23632 3.8215 0.844503 3.71331 0.494164 3.51855V3.54992C0.494285 4.1326 0.695914 4.69731 1.06486 5.1483C1.43381 5.59929 1.94738 5.9088 2.51849 6.02436C2.14657 6.12515 1.75661 6.14 1.37811 6.06781C1.53913 6.56935 1.85297 7.00798 2.27568 7.32229C2.6984 7.63659 3.20882 7.81083 3.73549 7.82061C3.21205 8.2317 2.61272 8.5356 1.97176 8.71491C1.33079 8.89423 0.660772 8.94545 0 8.86565C1.15347 9.60746 2.49622 10.0013 3.86763 10C8.50939 10 11.0478 6.15469 11.0478 2.81984C11.0478 2.71123 11.0448 2.60142 11.0399 2.49402C11.534 2.13692 11.9605 1.69456 12.2992 1.18771L12.2986 1.18711Z" fill="black"/>
</svg>
